<svg width="376" height="442" viewBox="0 0 376 442" fill="none" xmlns="http://www.w3.org/2000/svg">
<path fill-rule="evenodd" clip-rule="evenodd" d="M5.70729e-06 295.974L282.857 -77.9998L294.745 -69.0001L11.8885 304.974L5.70729e-06 295.974ZM85.1215 360.36L367.978 -13.6143L379.867 -4.61472L97.01 369.359L85.1215 360.36ZM452.536 50.3449L169.679 424.319L181.568 433.319L464.425 59.3445L452.536 50.3449ZM80.7514 250.144L312.171 -55.8272L324.059 -46.8278L92.6395 259.143L80.7514 250.144ZM396.726 8.13181L165.309 314.1L177.763 323.528L409.18 17.5597L396.726 8.13181ZM250.43 378.488L481.85 72.5174L493.738 81.5168L262.318 387.488L250.43 378.488ZM339.798 -34.934L263.972 65.3286L275.856 74.3254L351.681 -25.9371L339.798 -34.934ZM349.094 129.714L424.919 29.4517L436.803 38.4486L360.978 138.711L349.094 129.714ZM509.475 93.4109L433.652 193.672L446.101 203.097L521.924 102.836L509.475 93.4109ZM83.9408 303.338L236.919 101.072L248.806 110.071L95.8277 312.337L83.9408 303.338ZM322.041 165.458L169.063 367.724L180.949 376.723L333.928 174.457L322.041 165.458ZM253.62 431.681L406.596 229.417L419.049 238.844L266.073 441.108L253.62 431.681Z" fill="url(#paint0_linear)"/>
<defs>
<linearGradient id="paint0_linear" x1="415.108" y1="234.053" x2="259.397" y2="442.807" gradientUnits="userSpaceOnUse">
<stop stop-color="#2D3138" stop-opacity="0.5"/>
<stop offset="1" stop-color="#191B20"/>
</linearGradient>
</defs>
</svg>
