<svg width="406" height="442" viewBox="0 0 406 442" fill="none" xmlns="http://www.w3.org/2000/svg">
<path fill-rule="evenodd" clip-rule="evenodd" d="M-6.59959e-05 295.973L282.86 -77.9998L294.745 -68.9988L11.8851 304.974L-6.59959e-05 295.973ZM85.1213 360.358L367.982 -13.6143L379.867 -4.61343L97.0065 369.359L85.1213 360.358ZM452.539 50.3449L169.679 424.318L181.564 433.319L464.424 59.3458L452.539 50.3449ZM80.7513 250.142L312.174 -55.8272L324.059 -46.8265L92.636 259.143L80.7513 250.142ZM396.729 8.13184L165.309 314.099L177.759 323.528L409.18 17.5611L396.729 8.13184ZM250.43 378.487L481.853 72.5174L493.738 81.5181L262.315 387.488L250.43 378.487ZM339.8 -34.934L263.972 65.3273L275.853 74.3254L351.681 -25.9359L339.8 -34.934ZM349.094 129.713L424.922 29.4518L436.803 38.4499L360.974 138.711L349.094 129.713ZM509.478 93.411L433.652 193.67L446.097 203.097L521.924 102.837L509.478 93.411ZM83.9407 303.337L236.922 101.072L248.806 110.072L95.8243 312.337L83.9407 303.337ZM322.044 165.458L169.062 367.723L180.946 376.723L333.928 174.458L322.044 165.458ZM253.62 431.68L406.599 229.417L419.049 238.846L266.069 441.108L253.62 431.68Z" fill="url(#paint0_linear)"/>
<defs>
<linearGradient id="paint0_linear" x1="415.107" y1="234.085" x2="259.379" y2="442.809" gradientUnits="userSpaceOnUse">
<stop stop-color="#E8E8E8"/>
<stop offset="1" stop-color="#FAFAFA"/>
</linearGradient>
</defs>
</svg>
